<?xml version="1.0" encoding="UTF-8" standalone="no"?>
<!DOCTYPE svg PUBLIC "-//W3C//DTD SVG 1.1//EN" "http://www.w3.org/Graphics/SVG/1.1/DTD/svg11.dtd">
<svg width="100%" height="100%" viewBox="0 0 400 576" version="1.1" xmlns="http://www.w3.org/2000/svg" xmlns:xlink="http://www.w3.org/1999/xlink" xml:space="preserve" xmlns:serif="http://www.serif.com/" style="fill-rule:evenodd;clip-rule:evenodd;stroke-linecap:round;stroke-linejoin:round;stroke-miterlimit:1.5;">
    <g transform="matrix(1,0,0,1,-340,-255)">
        <g transform="matrix(1,0,0,1,0,22.6163)">
            <g transform="matrix(1,0,0,1,0,-8)">
                <g transform="matrix(1,0,0,0.71222,22.8067,162.811)">
                    <path d="M540,721.529L540,900.908C540,909.744 534.89,916.919 528.597,916.919L505.79,916.919C499.496,916.919 494.387,909.744 494.387,900.908L494.387,721.529C494.387,712.692 499.496,705.518 505.79,705.518L528.597,705.518C534.89,705.518 540,712.692 540,721.529Z" style="fill:rgb(0,168,227);"/>
                </g>
                <g transform="matrix(0.851955,0,0,0.615916,70.3002,191.948)">
                    <path d="M647.336,649.366L647.336,675.523C647.336,682.741 643.099,688.601 637.881,688.601L464.759,688.601C459.541,688.601 455.304,682.741 455.304,675.523L455.304,649.366C455.304,642.147 459.541,636.287 464.759,636.287L637.881,636.287C643.099,636.287 647.336,642.147 647.336,649.366Z" style="fill:rgb(0,168,227);"/>
                </g>
                <g transform="matrix(0.665808,0,0,0.483087,172.927,319.513)">
                    <path d="M647.336,649.366L647.336,675.523C647.336,682.741 643.084,688.601 637.847,688.601L464.793,688.601C459.556,688.601 455.304,682.741 455.304,675.523L455.304,649.366C455.304,642.147 459.556,636.287 464.793,636.287L637.847,636.287C643.084,636.287 647.336,642.147 647.336,649.366Z" style="fill:rgb(0,168,227);"/>
                </g>
            </g>
            <g transform="matrix(1,0,0,0.792088,15.4466,96.074)">
                <g transform="matrix(1,0,0,1,173.582,5.75499)">
                    <path d="M468.067,186.958L468.067,318.325C468.067,329.341 460.983,338.285 452.257,338.285L420.637,338.285C411.912,338.285 404.827,329.341 404.827,318.325L404.827,186.958C404.827,175.941 411.912,166.998 420.637,166.998L452.257,166.998C460.983,166.998 468.067,175.941 468.067,186.958Z" style="fill:rgb(0,168,227);"/>
                </g>
                <g transform="matrix(1,0,0,1,2.62988,5.75499)">
                    <path d="M468.067,186.958L468.067,318.325C468.067,329.341 460.983,338.285 452.257,338.285L420.637,338.285C411.912,338.285 404.827,329.341 404.827,318.325L404.827,186.958C404.827,175.941 411.912,166.998 420.637,166.998L452.257,166.998C460.983,166.998 468.067,175.941 468.067,186.958Z" style="fill:rgb(0,168,227);"/>
                </g>
            </g>
            <g transform="matrix(1,0,0,0.962832,0,11.617)">
                <g transform="matrix(1,0,0,1.04868,1.04039,-48.999)">
                    <path d="M647.336,556.102L647.336,577.571C647.336,586.458 640.051,593.673 631.078,593.673L446.841,593.673C437.868,593.673 430.583,586.458 430.583,577.571L430.583,556.102C430.583,547.215 437.868,540 446.841,540L631.078,540C640.051,540 647.336,547.215 647.336,556.102Z" style="fill:rgb(0,168,227);"/>
                </g>
                <g transform="matrix(1.0147,0,0,0.953656,2.89694,25.7872)">
                    <path d="M726.424,351.847L726.424,505.285C726.424,533.513 705.685,556.431 680.141,556.431L378.501,556.431C352.957,556.431 332.219,533.513 332.219,505.285L332.219,351.847C332.219,323.619 352.957,300.701 378.501,300.701L680.141,300.701C705.685,300.701 726.424,323.619 726.424,351.847Z" style="fill:rgb(0,168,227);"/>
                </g>
            </g>
            <g transform="matrix(1,0,0,1,9.75996,0)">
                <path d="M330.24,368.088L330.24,361.328C330.24,334.408 352.096,312.553 379.016,312.553L681.464,312.553C708.384,312.553 730.24,334.408 730.24,361.328L730.24,368.088L530.24,487.648L330.24,368.088Z" style="fill:url(#_Linear1);"/>
            </g>
            <g transform="matrix(1,0,0,1,9.75996,8)">
                <g transform="matrix(1,0,0,1,0,-38.98)">
                    <circle cx="530.24" cy="487.648" r="72.124" style="fill:rgb(30,53,77);stroke:white;stroke-width:6px;"/>
                </g>
                <g transform="matrix(0.375435,0,0,0.375435,422.116,342.219)">
                    <path d="M440.049,255.225L440.049,220.595L306.402,164.14L296.383,195.228L405.849,237.922L296.384,280.628L306.401,311.705L440.049,255.225Z" style="fill:white;fill-rule:nonzero;"/>
                </g>
                <g transform="matrix(0.375435,0,0,0.375435,422.116,342.219)">
                    <path d="M170.14,329.376L279.607,286.681L269.589,255.593L135.942,312.048L135.942,346.678L269.59,403.158L279.607,372.082L170.14,329.376Z" style="fill:white;fill-rule:nonzero;"/>
                </g>
                <g transform="matrix(0.375435,0,0,0.375435,422.116,342.219)">
                    <path d="M279.592,189.817L288.919,160.872C288.65,160.87 288.378,160.857 288.109,160.857C221.514,160.857 167.182,214.207 165.511,280.407L197.505,266.891C201.133,247.103 211.175,228.981 226.274,215.287C240.973,201.955 259.403,193.819 278.931,191.867L279.592,189.817Z" style="fill:rgb(15,170,226);fill-rule:nonzero;"/>
                </g>
                <g transform="matrix(0.375435,0,0,0.375435,422.116,342.219)">
                    <path d="M378.697,300.305C375.061,319.978 365.083,337.997 350.088,351.653C335.328,365.096 316.807,373.272 297.136,375.202L296.398,377.494L287.146,406.197C287.466,406.2 287.789,406.213 288.109,406.213C354.667,406.213 408.975,352.926 410.705,286.778L378.697,300.305Z" style="fill:rgb(15,170,226);fill-rule:nonzero;"/>
                </g>
            </g>
        </g>
    </g>
    <defs>
        <linearGradient id="_Linear1" x1="0" y1="0" x2="1" y2="0" gradientUnits="userSpaceOnUse" gradientTransform="matrix(400,0,-0,400,330.24,400.1)"><stop offset="0" style="stop-color:rgb(30,53,77);stop-opacity:1"/><stop offset="1" style="stop-color:rgb(67,118,172);stop-opacity:1"/></linearGradient>
    </defs>
</svg>
